<?xml version="1.0" encoding="UTF-8" standalone="no"?>
<!-- Created with Inkscape (http://www.inkscape.org/) -->

<svg
   width="95.912262mm"
   height="121.67453mm"
   viewBox="0 0 95.912262 121.67453"
   version="1.1"
   id="svg1"
   xml:space="preserve"
   xmlns="http://www.w3.org/2000/svg"
   xmlns:svg="http://www.w3.org/2000/svg"><defs
     id="defs1" /><g
     id="layer1"
     transform="translate(-349.85274,-24.343477)"><g
       id="g5"><path
         id="path2"
         style="fill:#ffffff;fill-opacity:1;stroke:none;stroke-width:2.7;stroke-linecap:round;stroke-dasharray:none;stroke-opacity:1;paint-order:stroke fill markers"
         d="m 294.47266,27.650391 c -3.24587,-0.05621 -6.55138,0.402428 -9.76954,1.4375 -10.3973,3.344145 -17.89402,12.374183 -19.69921,23.285156 -0.30619,1.850642 -0.25644,2.679489 -0.32422,4.509765 -0.0678,1.830277 -0.1159,4.03908 -0.13282,6.259766 -0.0387,5.073291 -0.2124,7.425076 -0.4746,8.458984 -0.26221,1.033909 -0.67531,1.801126 -2.63086,4.705079 -1.96702,2.920952 -3.42267,5.547424 -4.33399,8.36914 -1.19651,3.70432 -1.27655,5.404673 -0.7207,9.111328 l 0.18359,1.22461 a 7.5362641,7.5362641 0 0 0 7.47071,6.417971 l 12.14453,-0.0273 c 0.33153,1.14579 0.75001,2.22955 1.26562,3.23829 a 7.5362641,7.5362641 0 0 0 -0.20898,0.0859 7.5362641,7.5362641 0 0 0 -2.27539,-1.24804 h -4.47266 a 7.5362641,7.5362641 0 0 0 -1.52539,0.63086 7.5362641,7.5362641 0 0 0 -1.52344,-0.63086 h -8.49609 a 7.5362641,7.5362641 0 0 0 -7.53516,7.53515 v 2.57227 a 7.5362641,7.5362641 0 0 0 1.93946,4.68164 7.5362641,7.5362641 0 0 0 -0.60547,1.45898 7.5362641,7.5362641 0 0 0 -6.69532,9.20899 l 3.90625,14.50586 a 7.5362641,7.5362641 0 0 0 7.27539,5.57617 h 4.14063 a 7.5362641,7.5362641 0 0 0 2.56055,-0.86914 7.5362641,7.5362641 0 0 0 2.57422,0.86914 h 4.14062 a 7.5362641,7.5362641 0 0 0 2.90039,-0.98438 7.5362641,7.5362641 0 0 0 1.88281,0.98438 h 3.77149 a 7.5362641,7.5362641 0 0 0 3.6914,-1.1836 7.5362641,7.5362641 0 0 0 3.69336,1.1836 h 3.86719 a 7.5362641,7.5362641 0 0 0 1.41797,-0.27539 7.5362641,7.5362641 0 0 0 0.66602,0.27539 h 3.74218 a 7.5362641,7.5362641 0 0 0 2.85352,-1.18164 7.5362641,7.5362641 0 0 0 2.35937,1.18164 h 4.58789 a 7.5362641,7.5362641 0 0 0 2.91211,-0.83203 7.5362641,7.5362641 0 0 0 2.00782,0.83203 h 3.74218 a 7.5362641,7.5362641 0 0 0 4.73438,-1.96094 c 2.60962,1.6697 5.56664,2.26367 8.29101,2.26367 3.25181,0 6.8701,-0.74422 9.78516,-3.29492 2.85006,-2.4938 4.20898,-6.47154 4.20898,-9.79297 v -9.25586 a 7.5362641,7.5362641 0 0 0 -7.13476,-7.36914 7.5362641,7.5362641 0 0 0 3.31641,-5.78711 v -2.80664 a 7.5362641,7.5362641 0 0 0 -7.53516,-7.53515 h -12.80274 a 7.5362641,7.5362641 0 0 0 -2.58203,1.06836 7.5362641,7.5362641 0 0 0 -3.4082,-1.06836 h -0.46289 c 0.30075,-0.69506 0.57886,-1.40399 0.79297,-2.15625 l 12.25195,-0.0273 a 7.5362641,7.5362641 0 0 0 7.51367,-7.289061 l 0.0762,-2.333984 c 0.17245,-5.247662 -1.82349,-10.564299 -5.40235,-15.708984 -3.25237,-4.675397 -3.13783,-4.471743 -2.875,-13.859375 0.0265,-0.945081 0.0626,-1.640603 0.0977,-2.414063 2.58552,-2.262826 5.17137,-4.319008 7.74609,-6.162109 1.06124,-0.759684 2.62423,-1.795992 3.85938,-2.570313 0.50717,-0.317947 0.89191,-0.545369 1.20898,-0.730469 0.69799,-0.246077 1.2345,-0.567503 1.71875,-0.880859 0.94337,-0.610451 1.72083,-1.29623 2.48828,-2.537109 0.62111,-1.004421 1.57296,-3.104469 0.91602,-5.78125 -0.65694,-2.676782 -2.78404,-4.376211 -4.00196,-4.976563 -2.43583,-1.200704 -3.01843,-0.79719 -3.55664,-0.787109 -1.07641,0.02016 -1.35315,0.126072 -1.73046,0.203125 -0.75464,0.154106 -1.36107,0.330211 -2.07227,0.554687 -3.95459,1.248216 -7.76978,2.886239 -11.51953,4.730469 -5.29233,-8.331025 -14.58442,-12.935135 -24.19531,-13.101562 z m 41.74218,22.609375 c -0.23846,0.146014 -0.56254,0.367187 -2.37109,0.367187 1.01874,0 1.73651,-0.164009 2.37109,-0.367187 z m -41.48047,7.220703 0.0899,0.08789 c -0.0738,0.06878 -0.14894,0.128202 -0.22266,0.197266 -0.0293,-0.0235 -0.0566,-0.05081 -0.0859,-0.07422 z m -15.52148,31.734375 c -0.0831,0.207188 -0.13346,0.280543 -0.20508,0.322265 0.0907,-0.133095 0.11736,-0.192867 0.20508,-0.322265 z m 29.62695,0.05273 c 0.10625,0.164277 0.26167,0.390336 0.33985,0.515625 -0.0821,-0.05048 -0.20126,-0.157788 -0.33985,-0.515625 z m -10.11718,14.330082 0.0547,0.0117 c -0.01,-0.002 -0.0196,-1e-5 -0.0293,-0.002 -0.009,-0.002 -0.0161,-0.008 -0.0254,-0.01 z m 10.69336,11.29101 1.6289,2.28125 h -3.25781 z m -25.12305,17.91602 0.23242,0.32812 h -3.25781 l 0.0527,-0.0762 h 2.36524 a 7.5362641,7.5362641 0 0 0 0.60742,-0.25195 z m -4.83203,11.11914 a 7.5362641,7.5362641 0 0 0 1.61133,2.16211 h -0.8711 z m 6.66992,0.27344 a 7.5362641,7.5362641 0 0 0 0.0606,0.14648 l -0.59571,1.74219 h -0.87304 a 7.5362641,7.5362641 0 0 0 1.4082,-1.88867 z"
         transform="translate(103.99436,-3.3023233)" /><g
         id="g2"
         transform="translate(13.655172,4.5517241)"
         style="stroke:none;stroke-width:2.7;stroke-linecap:round;stroke-dasharray:none;stroke-opacity:1;paint-order:stroke fill markers"><path
           style="fill:#36aec1;fill-opacity:1;stroke:none;stroke-width:2.7;stroke-linecap:round;stroke-dasharray:none;stroke-opacity:1;paint-order:stroke fill markers"
           d="m 381.55306,98.899935 c -3.80702,-1.10304 -7.16895,-4.42025 -8.0083,-7.90175 l -0.17541,-0.72761 h 11.01393 11.01393 l -0.17323,0.72761 c -0.69021,2.89903 -3.07284,5.68155 -6.09328,7.11595 -1.6778,0.79678 -2.33724,0.96145 -4.17551,1.04262 -1.32517,0.0585 -2.66212,-0.0424 -3.40213,-0.25682 z m -27.37449,-14.08493 c -0.21282,-1.41918 0.0147,-4.36388 0.43867,-5.67646 0.60105,-1.86104 1.66635,-3.88231 3.41378,-6.47719 4.04979,-6.01386 4.31108,-7.04465 4.38934,-17.31578 0.0327,-4.29286 0.19279,-8.61108 0.35575,-9.59603 1.40067,-8.46593 6.74309,-14.82383 14.57207,-17.34191 9.61012,-3.090952 20.4815,0.64627 25.46817,8.75511 l 0.99421,1.61669 -0.86192,0.51713 c -0.47405,0.28443 -1.76179,1.09478 -2.86163,1.80078 -1.09984,0.70601 -2.06518,1.28365 -2.1452,1.28365 -0.08,0 -0.58023,-0.70432 -1.11157,-1.56516 -3.03398,-4.91544 -9.65626,-7.56322 -15.68144,-6.26988 -5.11625,1.09823 -9.0766,4.63854 -10.86748,9.71488 -0.67259,1.90649 -0.69511,2.18371 -0.87904,10.82016 -0.19486,9.14997 -0.35922,10.65448 -1.53329,14.03564 -0.85628,2.46601 -1.49301,3.57835 -4.89819,8.55701 -0.38713,0.56601 -0.70387,1.13156 -0.70387,1.25677 0,0.12534 9.92926,0.22766 22.09271,0.22766 13.51121,0 22.09271,-0.096 22.09271,-0.24712 0,-0.13591 -0.77878,-1.38773 -1.73063,-2.78181 -4.05861,-5.94431 -5.41312,-10.48274 -5.41312,-18.13731 v -2.40168 l -1.49057,1.66365 c -4.71211,5.25927 -10.64657,13.71924 -12.21013,17.40636 -0.35269,0.83167 -0.41465,0.87211 -0.60814,0.39687 -3.13388,-7.69771 -7.60543,-15.73969 -12.33539,-22.18493 -1.96848,-2.68231 -1.95645,-2.68746 1.92834,-0.82574 2.77199,1.32843 5.7537,3.48373 8.54769,6.17862 l 1.95575,1.88639 3.33591,-3.24314 c 11.01456,-10.70828 22.08508,-17.63979 34.36196,-21.51483 1.05704,-0.33364 1.85368,-0.49626 1.77032,-0.36139 -0.0833,0.13488 -0.25485,0.24523 -0.3811,0.24523 -0.35612,0 -4.36662,2.51375 -6.87325,4.30811 -2.79397,2.00005 -5.57826,4.21446 -8.3441,6.63623 -1.16417,1.01935 -2.19984,1.92067 -2.30149,2.00295 -0.10165,0.0823 -0.25668,2.71623 -0.34451,5.85325 -0.27445,9.80269 0.44836,12.94775 4.22265,18.37342 3.20323,4.60474 4.18314,7.30041 4.05634,11.15875 l -0.0767,2.335 -30.07997,0.0673 -30.07998,0.0673 z m 28.59259,-32.34354 c -0.6279,-0.28526 -1.38033,-0.94448 -1.84757,-1.61871 -0.66565,-0.96053 -0.78896,-1.39274 -0.79277,-2.77875 -0.007,-2.3667 0.94719,-3.90855 2.96355,-4.79116 1.62377,-0.71078 4.13094,-0.2995 5.45093,0.89418 0.86055,0.7782 1.56394,2.46937 1.56394,3.76022 0,1.29049 -0.70945,2.9969 -1.55426,3.7384 -1.5245,1.33809 -3.87751,1.66185 -5.78382,0.79582 z"
           id="path1" /><text
           xml:space="preserve"
           style="font-weight:bold;font-size:19.9531px;line-height:0.8;font-family:Verdana;-inkscape-font-specification:'Verdana, Bold';text-align:center;letter-spacing:0px;word-spacing:0px;writing-mode:lr-tb;direction:ltr;text-anchor:middle;fill:#36aec1;fill-opacity:1;stroke:none;stroke-width:2.7;stroke-linecap:round;stroke-dasharray:none;stroke-opacity:1;paint-order:stroke fill markers"
           x="384.6203"
           y="117.66679"
           id="text1"><tspan
             id="tspan1"
             x="384.6203"
             y="117.66679"
             style="text-align:center;text-anchor:middle;stroke:none;stroke-width:2.7;stroke-linecap:round;stroke-dasharray:none;stroke-opacity:1;paint-order:stroke fill markers">INGAT</tspan><tspan
             x="384.6203"
             y="133.62927"
             style="text-align:center;text-anchor:middle;stroke:none;stroke-width:2.7;stroke-linecap:round;stroke-dasharray:none;stroke-opacity:1;paint-order:stroke fill markers"
             id="tspan2">WAKTU</tspan></text></g></g></g></svg>
